<?xml version="1.0" standalone="no"?>
<!DOCTYPE svg PUBLIC "-//W3C//DTD SVG 20010904//EN"
 "http://www.w3.org/TR/2001/REC-SVG-20010904/DTD/svg10.dtd">
<svg version="1.0" xmlns="http://www.w3.org/2000/svg"
 width="500.000000pt" height="500.000000pt" viewBox="0 0 500.000000 500.000000"
 preserveAspectRatio="xMidYMid meet">
<metadata>
Created by potrace 1.14, written by Peter Selinger 2001-2017
</metadata>
<g transform="translate(0.000000,500.000000) scale(0.100000,-0.100000)"
fill="#000000" stroke="none">
<path d="M4174 3404 c-10 -66 1 -184 17 -195 17 -11 276 -12 282 -1 3 4 8 28
12 55 7 45 6 47 -16 47 -14 0 -19 3 -13 8 15 10 26 75 18 106 -6 26 -7 26
-104 26 l-99 0 -5 -42 c-3 -24 -7 -56 -9 -73 -2 -16 -5 3 -6 43 l-1 72 -34 0
c-34 0 -35 -2 -42 -46z m66 -40 c0 -66 2 -75 18 -72 14 3 18 16 20 76 3 64 5
72 22 72 18 0 20 -7 20 -83 0 -95 -7 -107 -61 -107 -53 0 -69 26 -69 111 0 71
3 79 32 79 16 0 18 -9 18 -76z m220 44 c-1 -22 -11 -45 -30 -68 -17 -19 -30
-38 -30 -42 0 -4 18 -8 40 -8 43 0 43 0 34 -24 -5 -12 -21 -16 -74 -16 l-68 0
0 45 c1 25 5 45 11 45 5 0 6 -8 3 -17 -3 -10 11 0 31 22 l38 40 -35 3 c-41 4
-55 15 -47 36 5 12 21 16 67 16 l60 0 0 -32z"/>
<path d="M3532 3128 c-39 -10 -66 -56 -60 -104 2 -19 3 -34 2 -34 -1 0 -18 7
-37 15 -52 21 -1769 23 -1820 1 -35 -15 -78 -51 -95 -82 -10 -18 -13 -17 -42
19 -54 64 -92 77 -228 77 -136 0 -172 -10 -222 -64 l-33 -34 -25 30 c-50 59
-87 68 -284 68 l-178 0 0 -50 c0 -47 -2 -50 -25 -50 l-25 0 0 -375 0 -375 120
0 120 0 0 50 c0 49 1 50 30 50 l30 0 0 70 c0 49 4 70 13 70 31 0 89 23 117 46
l30 26 0 -80 c0 -98 25 -153 91 -197 42 -28 50 -30 162 -34 135 -4 186 9 237
61 l30 30 0 -47 0 -46 208 3 207 3 44 30 c35 23 55 50 92 120 l48 90 1 133 0
132 35 0 35 0 0 -255 0 -255 125 0 125 0 0 50 c0 47 2 50 25 50 l25 0 0 210
c0 192 2 211 18 217 9 3 27 15 40 26 l22 20 0 -286 0 -287 375 0 375 0 0 50 0
50 34 0 c32 0 35 -3 52 -50 l18 -50 338 0 338 0 0 50 c0 47 2 50 25 50 l25 0
0 120 0 120 -120 0 -120 0 0 255 0 255 -48 0 c-28 0 -64 -8 -87 -20 -22 -11
-39 -20 -40 -20 0 0 2 24 3 54 3 45 0 57 -18 74 -26 24 -64 31 -108 20z m90
-35 c25 -23 24 -84 -2 -108 -27 -25 -76 -23 -102 3 -26 26 -28 75 -3 102 22
25 81 27 107 3z m-2716 -139 c58 -43 69 -68 72 -170 3 -79 1 -100 -17 -136
-31 -63 -74 -88 -165 -95 l-76 -6 0 -118 0 -119 -85 0 -85 0 0 336 0 335 164
-3 c148 -3 167 -5 192 -24z m495 3 c18 -12 44 -38 56 -56 22 -33 23 -42 23
-256 0 -214 -1 -223 -22 -255 -47 -68 -65 -75 -208 -75 -143 0 -161 7 -207 75
-22 32 -23 41 -23 253 0 205 1 222 21 257 36 65 76 80 210 80 104 0 119 -2
150 -23z m599 -82 l0 -105 -80 0 c-79 0 -80 0 -80 25 0 24 -2 25 -70 25 l-70
0 0 -50 0 -50 151 0 150 0 -3 -154 c-3 -168 -8 -182 -72 -230 -25 -19 -44 -21
-207 -24 l-179 -3 0 100 0 101 80 0 c73 0 80 -2 80 -20 0 -18 7 -20 70 -20
l70 0 0 39 0 38 -94 5 c-107 6 -146 23 -183 78 -20 29 -23 46 -23 132 0 120
14 157 74 193 39 24 48 25 214 25 l172 0 0 -105z m555 78 c-18 -74 -86 -132
-152 -133 l-33 0 0 -255 0 -255 -80 0 -80 0 0 255 0 255 -85 0 -85 0 0 80 0
80 261 0 261 0 -7 -27z m495 -13 c0 -98 -35 -120 -195 -120 l-115 0 0 -50 0
-49 83 -3 82 -3 0 -80 0 -80 -82 -3 -83 -3 0 -39 0 -40 155 0 155 0 0 -80 0
-80 -235 0 -235 0 0 335 0 335 235 0 235 0 0 -40z m396 14 c61 -45 69 -66 69
-184 0 -97 -2 -112 -23 -139 l-23 -31 61 -141 c33 -77 60 -143 60 -145 0 -2
-37 -4 -82 -4 l-83 0 -49 120 c-49 119 -50 120 -83 120 l-33 0 0 -120 0 -120
-85 0 -85 0 0 336 0 335 164 -3 c148 -3 167 -5 192 -24z m336 -226 l3 -253
123 -3 122 -3 0 -79 0 -80 -205 0 -205 0 0 268 c0 239 2 271 19 308 23 51 76
91 123 93 16 1 18 -19 20 -251z m-173 192 c-11 -19 -19 -40 -19 -46 0 -6 -7
-17 -15 -24 -12 -10 -15 -10 -15 2 0 8 -10 34 -22 59 l-23 44 56 0 56 0 -18
-35z m-609 -305 l0 -105 -25 0 c-25 0 -25 1 -25 89 0 81 2 90 23 104 12 9 23
16 25 16 1 1 2 -46 2 -104z m527 -37 c-3 -8 -6 -5 -6 6 -1 11 2 17 5 13 3 -3
4 -12 1 -19z"/>
<path d="M720 2770 l0 -50 50 0 50 0 0 50 0 50 -50 0 -50 0 0 -50z"/>
<path d="M1180 2645 l0 -175 70 0 70 0 0 175 0 175 -70 0 -70 0 0 -175z m47
-98 c-2 -23 -3 -1 -3 48 0 50 1 68 3 42 2 -26 2 -67 0 -90z"/>
<path d="M3260 2770 l0 -50 50 0 50 0 0 50 0 50 -50 0 -50 0 0 -50z"/>
<path d="M3950 3014 c0 -3 12 -25 26 -50 l26 -44 -57 0 -57 0 38 -67 c21 -38
69 -124 106 -192 l68 -125 0 -183 0 -183 125 0 125 0 0 50 c0 47 2 50 25 50
l25 0 0 181 c0 160 2 185 19 213 30 50 191 346 191 351 0 3 -57 4 -127 3
l-127 -3 -36 -62 c-19 -35 -37 -63 -40 -63 -3 0 -23 29 -43 65 l-38 65 -124 0
c-69 0 -125 -3 -125 -6z m275 -124 c27 -49 52 -90 55 -90 3 0 27 41 53 90 l48
90 80 0 c43 0 79 -2 79 -5 0 -3 -40 -79 -90 -168 l-90 -163 0 -167 0 -167 -80
0 -80 0 0 166 0 166 -90 164 c-49 89 -90 165 -90 168 0 3 35 6 78 6 l77 0 50
-90z"/>
</g>
</svg>
